<svg version="1.1" xmlns="http://www.w3.org/2000/svg" xmlns:xlink="http://www.w3.org/1999/xlink" role="img" width="331" height="90" viewbox="0 0 331 90"><title>Hexo-NexT</title><desc>Generated by logo.svg, https://github.com/bubkoo/logo.svg</desc><path fill="#2b68a7" d="M-0.34 70.35L0.17 67.66L1 67.66Q3.18 67.66 4.90 66.86Q6.63 66.06 7.27 63.06L13.93 31.70Q14.18 30.67 14.18 29.90Q14.18 28.24 12.90 27.79Q11.62 27.34 9.58 27.34L8.74 27.34L9.32 24.66L27.94 24.66L27.37 27.34L26.54 27.34Q24.36 27.34 22.66 28.14Q20.97 28.94 20.33 31.95L17.58 44.88L38.38 44.88L41.19 31.70Q41.45 30.67 41.45 29.90Q41.45 28.24 40.17 27.79Q38.89 27.34 36.84 27.34L36.01 27.34L36.58 24.66L55.21 24.66L54.63 27.34L53.80 27.34Q51.62 27.34 49.93 28.14Q48.23 28.94 47.59 31.95L40.94 63.31Q40.68 64.34 40.68 65.10Q40.68 66.77 41.96 67.22Q43.24 67.66 45.29 67.66L46.12 67.66L45.54 70.35L26.92 70.35L27.43 67.66L28.26 67.66Q30.44 67.66 32.17 66.86Q33.90 66.06 34.54 63.06L37.67 48.08L16.87 48.08L13.67 63.31Q13.42 64.34 13.42 65.10Q13.42 66.77 14.70 67.22Q15.98 67.66 18.02 67.66L18.86 67.66L18.28 70.35L-0.34 70.35ZM66.98 70.99Q63.53 70.99 60.71 69.52Q57.90 68.05 56.20 65.14Q54.50 62.22 54.50 57.74Q54.50 54.22 55.72 50.32Q56.94 46.42 59.37 43.02Q61.80 39.63 65.35 37.52Q68.90 35.41 73.58 35.41Q77.61 35.41 79.85 37.36Q82.09 39.31 82.09 42.77Q82.09 46.16 79.69 49.07Q77.29 51.98 73.10 53.78Q68.90 55.57 63.53 55.57L61.29 55.57Q61.22 56.27 61.19 56.94Q61.16 57.62 61.16 58.26Q61.16 62.42 62.95 64.69Q64.74 66.96 68.20 66.96Q71.27 66.96 73.67 65.49Q76.07 64.02 77.42 62.35Q78.06 62.80 78.06 63.95Q78.06 65.36 76.87 66.99Q75.69 68.62 73.26 69.81Q70.82 70.99 66.98 70.99M61.86 52.62L62.50 52.62Q66.22 52.62 69.16 51.38Q72.10 50.13 73.80 47.92Q75.50 45.71 75.50 42.77Q75.50 38.48 71.78 38.48Q69.93 38.48 68.36 39.73Q66.79 40.98 65.51 43.06Q64.23 45.14 63.30 47.63Q62.38 50.13 61.86 52.62ZM82.02 70.35L82.73 67.66L83.56 67.66Q84.78 67.66 85.70 67.34Q86.63 67.02 87.66 66.06Q88.68 65.10 90.22 63.25L98.41 53.33L94.25 43.34Q93.10 40.59 92.30 39.66Q91.50 38.74 89.64 38.74L88.81 38.74L89.32 36.05L97.83 36.05L102.70 48.98L111.21 36.05L119.08 36.05L118.38 38.74L117.54 38.74Q116.33 38.74 115.37 39.12Q114.41 39.50 113.38 40.50Q112.36 41.49 110.89 43.34L104.17 51.98L108.58 63.06Q109.61 65.87 110.47 66.77Q111.34 67.66 113.19 67.66L114.02 67.66L113.51 70.35L104.94 70.35L99.75 56.27L90.15 70.35L82.02 70.35ZM133.29 70.99Q127.85 70.99 124.42 67.70Q121 64.40 121 57.74Q121 54.22 122.15 50.32Q123.30 46.42 125.67 43.02Q128.04 39.63 131.62 37.52Q135.21 35.41 140.07 35.41Q143.46 35.41 146.22 36.75Q148.97 38.10 150.60 41.04Q152.23 43.98 152.23 48.66Q152.23 51.41 151.53 54.45Q150.82 57.49 149.35 60.43Q147.88 63.38 145.64 65.74Q143.40 68.11 140.30 69.55Q137.19 70.99 133.29 70.99M133.99 67.73Q137.13 67.73 139.34 65.71Q141.54 63.70 142.92 60.53Q144.30 57.36 144.94 53.90Q145.58 50.45 145.58 47.57Q145.58 42.77 143.91 40.72Q142.25 38.67 139.30 38.67Q136.81 38.67 134.89 40.02Q132.97 41.36 131.59 43.57Q130.22 45.78 129.35 48.46Q128.49 51.15 128.07 53.87Q127.66 56.59 127.66 58.90Q127.66 63.76 129.38 65.74Q131.11 67.73 133.99 67.73ZM155.88 55.31L156.90 50.51L173.54 50.51L172.52 55.31L155.88 55.31ZM173.54 70.35L174.12 67.66L174.95 67.66Q177.06 67.66 178.76 66.86Q180.46 66.06 181.10 63.06L187.75 31.70Q188.01 30.67 188.01 29.90Q188.01 28.24 186.73 27.79Q185.45 27.34 183.40 27.34L182.57 27.34L183.14 24.66L194.79 24.66L210.28 59.98L216.30 31.70Q216.55 30.67 216.55 29.90Q216.55 28.24 215.27 27.79Q213.99 27.34 211.94 27.34L211.11 27.34L211.69 24.66L227.75 24.66L227.18 27.34L226.34 27.34Q224.17 27.34 222.47 28.14Q220.78 28.94 220.14 31.95L212.01 70.35L207.85 70.35L191.40 32.85L184.94 63.31Q184.68 64.34 184.68 65.10Q184.68 66.77 185.96 67.22Q187.24 67.66 189.29 67.66L190.12 67.66L189.54 70.35L173.54 70.35ZM238.89 70.99Q235.43 70.99 232.62 69.52Q229.80 68.05 228.10 65.14Q226.41 62.22 226.41 57.74Q226.41 54.22 227.62 50.32Q228.84 46.42 231.27 43.02Q233.70 39.63 237.26 37.52Q240.81 35.41 245.48 35.41Q249.51 35.41 251.75 37.36Q253.99 39.31 253.99 42.77Q253.99 46.16 251.59 49.07Q249.19 51.98 245 53.78Q240.81 55.57 235.43 55.57L233.19 55.57Q233.13 56.27 233.10 56.94Q233.06 57.62 233.06 58.26Q233.06 62.42 234.86 64.69Q236.65 66.96 240.10 66.96Q243.18 66.96 245.58 65.49Q247.98 64.02 249.32 62.35Q249.96 62.80 249.96 63.95Q249.96 65.36 248.78 66.99Q247.59 68.62 245.16 69.81Q242.73 70.99 238.89 70.99M233.77 52.62L234.41 52.62Q238.12 52.62 241.06 51.38Q244.01 50.13 245.70 47.92Q247.40 45.71 247.40 42.77Q247.40 38.48 243.69 38.48Q241.83 38.48 240.26 39.73Q238.70 40.98 237.42 43.06Q236.14 45.14 235.21 47.63Q234.28 50.13 233.77 52.62ZM253.93 70.35L254.63 67.66L255.46 67.66Q256.68 67.66 257.61 67.34Q258.54 67.02 259.56 66.06Q260.58 65.10 262.12 63.25L270.31 53.33L266.15 43.34Q265 40.59 264.20 39.66Q263.40 38.74 261.54 38.74L260.71 38.74L261.22 36.05L269.74 36.05L274.60 48.98L283.11 36.05L290.98 36.05L290.28 38.74L289.45 38.74Q288.23 38.74 287.27 39.12Q286.31 39.50 285.29 40.50Q284.26 41.49 282.79 43.34L276.07 51.98L280.49 63.06Q281.51 65.87 282.38 66.77Q283.24 67.66 285.10 67.66L285.93 67.66L285.42 70.35L276.84 70.35L271.66 56.27L262.06 70.35L253.93 70.35ZM296.04 70.35L296.62 67.66L298.09 67.66Q300.20 67.66 301.90 66.96Q303.59 66.26 304.23 63.38L311.78 27.86L305.64 27.86Q302.82 27.86 301.38 29.42Q299.94 30.99 299.24 33.10L298.34 35.86L295.02 35.86L297.70 24.66L333.74 24.66L331.69 35.86L328.36 35.86Q328.42 35.54 328.49 34.64Q328.55 33.74 328.62 32.94Q328.68 32.14 328.68 31.95Q328.68 30.29 327.78 29.07Q326.89 27.86 324.46 27.86L318.25 27.86L310.70 63.31Q310.44 64.34 310.44 65.10Q310.44 66.77 311.75 67.22Q313.06 67.66 315.05 67.66L316.52 67.66L315.94 70.35L296.04 70.35Z"></path></svg>